<?xml version="1.0" encoding="UTF-8"?>
<!DOCTYPE svg PUBLIC "-//W3C//DTD SVG 1.1//EN" "http://www.w3.org/Graphics/SVG/1.1/DTD/svg11.dtd">
<!-- Creator: CorelDRAW 2018 (64-Bit) -->
<svg xmlns="http://www.w3.org/2000/svg" xml:space="preserve" width="3.894mm" height="4.84mm" version="1.1" style="shape-rendering:geometricPrecision; text-rendering:geometricPrecision; image-rendering:optimizeQuality; fill-rule:evenodd; clip-rule:evenodd"
viewBox="0 0 279.4 254"
 xmlns:xlink="http://www.w3.org/1999/xlink">
 <defs>
  <style type="text/css">
   <![CDATA[
    .fil0 {fill:white}
   ]]>
  </style>
 </defs>
 <g id="Layer_x0020_1">
  <metadata id="CorelCorpID_0Corel-Layer"/>
  <path class="fil0" d="M-0 254c3.09,-96.12 99.52,-46.76 106.32,-92.44 -9.58,-8.89 -14.54,-19.16 -16.38,-30.04 -8.57,1.86 -13.91,-5.21 -14.22,-17.78 -0.26,-10.67 1.91,-16.87 8.35,-16.86 0.75,-9.58 -1.22,-46.41 -17,-50.58 44.2,-54.26 77.27,-57.63 101.68,-26.67 27,-0.36 54.4,48.74 19.78,80.32 10.24,-0.82 15.46,0.53 12.98,14.4 -3.06,15.23 -7.96,20.17 -14.21,17.48 -2.24,12 -7.05,21.35 -15.15,27.28 10.82,54.26 103.54,-4.29 107.25,94.89l-279.4 0zm182.04 -127.44c-6.8,52.11 -75.1,59.53 -87.16,0.67 0.62,-7.05 -11.12,9.81 -12.98,-16.25 0,-7.36 2.31,-8.83 10.82,-5.21 4.11,1.96 5.69,0.23 4.95,-4.9 -6.19,-44.76 46.67,-28.21 66.76,-47.21 14.77,5.96 21.49,21.06 18.23,47.51 -1.55,7.64 0.43,9.48 5.56,6.13 12.06,-3.06 6.49,6.44 5.88,9.81 -2.79,16.56 -10.51,1.23 -12.06,9.45zm-70.16 39.91c18.24,14.1 35.86,13.79 55.33,-1.23l8.96 16.56 -17.62 44.75 -10.51 -25.13c28.75,-27.29 -43.26,-26.67 -15.45,0l-10.2 25.13 -19.47 -45.06 8.96 -15.02z"/>
 </g>
</svg>
