<?xml version="1.0" encoding="UTF-8"?>
<!DOCTYPE svg PUBLIC "-//W3C//DTD SVG 1.1//EN" "http://www.w3.org/Graphics/SVG/1.1/DTD/svg11.dtd">
<!-- Creator: CorelDRAW 2018 (64-Bit) -->
<svg xmlns="http://www.w3.org/2000/svg" xml:space="preserve" width="10.9488mm" height="5.7382mm" version="1.1" style="shape-rendering:geometricPrecision; text-rendering:geometricPrecision; image-rendering:optimizeQuality; fill-rule:evenodd; clip-rule:evenodd"
viewBox="0 0 1094.88 573.82"
 xmlns:xlink="http://www.w3.org/1999/xlink">
 <defs>
  <style type="text/css">
   <![CDATA[
    .str0 {stroke:white;stroke-width:40.64;stroke-miterlimit:22.9256}
    .fil1 {fill:none}
    .fil0 {fill:white}
   ]]>
  </style>
 </defs>
 <g id="Layer_x0020_1">
  <metadata id="CorelCorpID_0Corel-Layer"/>
  <g id="_2094015360528">
   <path class="fil0" d="M44.58 527.9c11.28,-607.28 956.16,-673.32 998.22,-5.08l-998.22 5.08zm-44.42 45.92c-15.27,-753.9 1097.25,-774.22 1094.71,-5.84l-1094.71 5.84z"/>
   <path class="fil1 str0" d="M658.18 569.9c0.58,-4.5 0.88,-9.09 0.88,-13.75 0,-58.92 -47.7,-106.68 -106.54,-106.68 -58.84,0 -106.54,47.76 -106.54,106.68 0,3.54 0.17,7.03 0.51,10.48"/>
   <path class="fil0" d="M471.24 464.71l-132.08 -170.18c-15.24,-22.86 20.32,-43.18 33.02,-27.96l130.13 170.66 -31.07 27.48z"/>
   <rect class="fil0" transform="matrix(1.21038 0.236851 -0.192041 0.981387 109.767 435.704)" width="76.2" height="40.64" rx="20.32" ry="20.32"/>
   <rect class="fil0" transform="matrix(-1.11584 0.525359 0.425967 0.904739 941.048 323.51)" width="76.2" height="40.64" rx="20.32" ry="20.32"/>
   <rect class="fil0" transform="matrix(0.946883 0.790268 -0.640758 0.767743 214.644 237.95)" width="76.2" height="40.64" rx="20.32" ry="20.32"/>
   <rect class="fil0" transform="matrix(0.395677 1.16814 -0.947141 0.320819 402.041 114.985)" width="76.2" height="40.64" rx="20.32" ry="20.32"/>
   <rect class="fil0" transform="matrix(-0.0922208 1.22988 -0.997201 -0.0747736 614.937 95.4509)" width="76.2" height="40.64" rx="20.32" ry="20.32"/>
   <rect class="fil0" transform="matrix(-0.73115 0.993243 -0.805332 -0.592824 820.821 183.764)" width="76.2" height="40.64" rx="20.32" ry="20.32"/>
  </g>
 </g>
</svg>
