<?xml version="1.0" encoding="UTF-8"?>
<!DOCTYPE svg PUBLIC "-//W3C//DTD SVG 1.1//EN" "http://www.w3.org/Graphics/SVG/1.1/DTD/svg11.dtd">
<!-- Creator: CorelDRAW 2018 (64-Bit) -->
<svg xmlns="http://www.w3.org/2000/svg" xml:space="preserve" width="2.54mm" height="2.54mm" version="1.1" style="shape-rendering:geometricPrecision; text-rendering:geometricPrecision; image-rendering:optimizeQuality; fill-rule:evenodd; clip-rule:evenodd"
viewBox="0 0 20.03 20.03"
 xmlns:xlink="http://www.w3.org/1999/xlink">
 <defs>
  <style type="text/css">
   <![CDATA[
    .fil0 {fill:white}
   ]]>
  </style>
 </defs>
 <g id="Layer_x0020_1">
  <metadata id="CorelCorpID_0Corel-Layer"/>
  <g id="_2093761019152">
   <g>
    <rect class="fil0" x="3.54" y="2.47" width="5.96" height="1.27"/>
    <rect class="fil0" x="3.59" y="7.66" width="4.02" height="1.27"/>
    <rect class="fil0" x="9.67" y="7.66" width="4.02" height="1.27"/>
    <rect class="fil0" x="3.59" y="10.07" width="4.02" height="1.27"/>
    <rect class="fil0" x="9.67" y="10.07" width="4.02" height="1.27"/>
    <rect class="fil0" x="3.59" y="12.48" width="4.02" height="1.27"/>
    <rect class="fil0" x="9.67" y="12.48" width="4.02" height="1.27"/>
    <path class="fil0" d="M12.15 1.73l0 2.91 3.46 0.03 -3.46 -2.94zm-12.15 -1.73l0.03 20.03 17.25 0 0 -4.23 -1.43 0 0 2.96 -14.4 0.03 0 -17.52 9.22 0.03 0.03 4.61 5.12 0.03 0.03 1.87 1.43 0 -0.03 -3.49 -5 -4.28 -12.25 -0.03z"/>
   </g>
   <path class="fil0" d="M15.58 9.15l4.45 0 -0.35 0.77 -1.15 0c0.18,0.14 0.29,0.32 0.35,0.54l1.1 0 -0.4 0.73 -0.79 0c-0.18,0.59 -0.84,0.96 -1.81,1.19l2.34 2.07 -1.85 0 -2.12 -2 0 -0.77 1.15 0c0.31,-0.14 0.52,-0.3 0.62,-0.46l-1.94 0 0.35 -0.77 1.63 0c-0.01,-0.21 -0.24,-0.39 -0.57,-0.54l-1.41 0 0.4 -0.77z"/>
  </g>
 </g>
</svg>
