<?xml version="1.0" encoding="UTF-8"?>
<!DOCTYPE svg PUBLIC "-//W3C//DTD SVG 1.1//EN" "http://www.w3.org/Graphics/SVG/1.1/DTD/svg11.dtd">
<!-- Creator: CorelDRAW 2018 (64-Bit) -->
<svg xmlns="http://www.w3.org/2000/svg" xml:space="preserve" width="4.2334mm" height="4.2334mm" version="1.1" style="shape-rendering:geometricPrecision; text-rendering:geometricPrecision; image-rendering:optimizeQuality; fill-rule:evenodd; clip-rule:evenodd"
viewBox="0 0 426.04 426.04"
 xmlns:xlink="http://www.w3.org/1999/xlink">
 <defs>
  <style type="text/css">
   <![CDATA[
    .fil0 {fill:#FEFEFE}
   ]]>
  </style>
 </defs>
 <g id="Layer_x0020_1">
  <metadata id="CorelCorpID_0Corel-Layer"/>
  <g id="_1512387918656">
   <path class="fil0" d="M8.36 89.99c-15.2,-3.63 -7.77,-28.61 7.09,-25.49l58.8 12.52c9.71,1.77 13.88,7.73 15.7,18.71l51.5 203.56 243.49 0.45c-0.22,15.66 -5.31,24.2 -15.72,24.97l-234.59 0c-11.81,-0.22 -13.88,-2.7 -18.05,-18.71l-50.19 -204.83 -58.04 -11.18z"/>
   <path class="fil0" d="M118.94 119.46l37.77 0.31c23.49,130.15 201.35,136.24 231.47,0.58l29.01 0.45c8.55,0.56 10.03,7.52 8.07,16.99l-30.32 127.46 -240.25 -0.03 -35.75 -145.76z"/>
   <ellipse class="fil0" cx="298.27" cy="387.65" rx="37.45" ry="38.38"/>
   <ellipse class="fil0" cx="201.91" cy="387.65" rx="37.45" ry="38.38"/>
   <path class="fil0" d="M245.87 77.87c-12.52,-15.85 -36.82,2.96 -25.13,20.54l38.22 49.67c8.03,8.49 16.85,8.5 26.62,-1.79l57.26 -75.54c0.32,-0.68 0.77,-1.29 1.35,-1.78l12.39 -16.34c0.34,-0.58 0.7,-1.06 1.09,-1.43l13 -17.16c15.21,-21.7 -11.16,-40.49 -26.07,-20.14l-7.77 10.54c-0.26,0.49 -0.58,0.93 -0.97,1.3l-62.51 84.78 -27.49 -32.65z"/>
   <g>
    <path class="fil0" d="M323.24 15.08l-12.68 16.29 0.12 0.07 -0.01 0.02c-11.34,-6.84 -24.57,-10.78 -38.68,-10.78 -42.2,0 -76.4,35.06 -76.4,78.32 0,43.24 34.21,78.31 76.4,78.31 46.65,0 82.15,-42.35 75.65,-89.39l0 0.01 0.04 0.29 15.5 -20.92 0.32 -0.04c3.29,9.96 5.08,20.64 5.08,31.74 0,54.67 -43.24,98.99 -96.59,98.99 -53.34,0 -96.58,-44.32 -96.58,-98.99 0,-54.68 43.24,-99 96.58,-99 19.09,0 36.89,5.69 51.88,15.49l-0.01 0.01 -0.61 -0.42zm33.67 37.03c-5.34,-10.24 -12.31,-19.11 -20.67,-26.78l20.67 26.78zm-13.82 18.18c-4.21,-10.94 -10.76,-20.68 -19.01,-28.56l0.09 -0.13c7.79,7.62 14.43,17.59 18.8,28.91l0.12 -0.22z"/>
   </g>
  </g>
 </g>
</svg>
