<?xml version="1.0" encoding="UTF-8"?>
<!DOCTYPE svg PUBLIC "-//W3C//DTD SVG 1.1//EN" "http://www.w3.org/Graphics/SVG/1.1/DTD/svg11.dtd">
<!-- Creator: CorelDRAW 2018 (64-Bit) -->
<svg xmlns="http://www.w3.org/2000/svg" xml:space="preserve" width="4.00mm" height="4.00mm" version="1.1" style="shape-rendering:geometricPrecision; text-rendering:geometricPrecision; image-rendering:optimizeQuality; fill-rule:evenodd; clip-rule:evenodd"
viewBox="0 0 99.57 81.47"
 xmlns:xlink="http://www.w3.org/1999/xlink">
 <defs>
  <style type="text/css">
   <![CDATA[
    .fil0 {fill:white}
   ]]>
  </style>
 </defs>
 <g id="Layer_x0020_1">
  <metadata id="CorelCorpID_0Corel-Layer"/>
  <g id="_2150525946768">
   <path class="fil0" d="M14.42 46.47c1.94,-3.17 26.6,-6.87 38.38,0.52 3.37,2.89 15.43,1.56 22.28,3.92 11.94,2.47 6.08,10.9 1.77,11.01 -7.63,0.21 -16.25,-1.75 -23.89,-0.72 7.63,5.14 19.06,3.9 24.44,2.98 5.07,-0.86 8.92,-4.11 11.61,-6.07 4.64,-3.29 14.38,-0.82 8.62,4.63 6.53,1.34 -4.98,9.46 -12.38,13.16 -2.95,2 -6.69,2.99 -11.06,3.19 -5.19,0.44 -10.32,1.09 -15.37,2.06 -3.69,0.57 -6.73,0.38 -9.18,-0.51 -28.09,-10.7 -22.45,-11.31 -32.84,-12.75 -3.76,-0.52 -2.43,-2.16 -2.38,-21.41z"/>
   <rect class="fil0" y="41.05" width="11.38" height="31.04" rx="1.64" ry="1.53"/>
   <path class="fil0" d="M59.11 4.38l3.28 -4.38 30 0 -2.79 4.27 -8.64 0c1.76,1.34 2.82,2.93 2.88,4.85l8.55 0 -2.79 4.02 -5.76 0c-1.34,6.69 -6.61,10.29 -15.29,11.21l17.81 21.24 -7.73 0 -17.63 -20.58 0 -4.18c9.48,0.62 15.3,-1.65 16.37,-7.69l-17.63 -0.17 2.79 -4.27 14.03 0c-1.81,-3.85 -6.03,-4.6 -17.45,-4.33z"/>
  </g>
 </g>
</svg>
