<?xml version="1.0" encoding="UTF-8"?>
<!DOCTYPE svg PUBLIC "-//W3C//DTD SVG 1.1//EN" "http://www.w3.org/Graphics/SVG/1.1/DTD/svg11.dtd">
<!-- Creator: CorelDRAW 2018 (64-Bit) -->
<svg xmlns="http://www.w3.org/2000/svg" xml:space="preserve" width="4.794mm" height="4.286mm" version="1.1" style="shape-rendering:geometricPrecision; text-rendering:geometricPrecision; image-rendering:optimizeQuality; fill-rule:evenodd; clip-rule:evenodd"
viewBox="0 0 21.24 17.38"
 xmlns:xlink="http://www.w3.org/1999/xlink">
 <defs>
  <style type="text/css">
   <![CDATA[
    .fil0 {fill:white}
   ]]>
  </style>
 </defs>
 <g id="Layer_x0020_1">
  <metadata id="CorelCorpID_0Corel-Layer"/>
  <g id="_2150525711904">
   <path class="fil0" d="M2.87 17.28c-0.36,0.18 -0.91,-0.02 -1.1,-0.31 -5.95,-10.4 4.2,-20.18 13.33,-15.97 0.95,0.62 0.08,2.1 -0.87,1.64 -0.81,-0.41 -1.75,-0.66 -2.8,-0.78l0.04 1.29c0.04,1.05 -1.67,1.21 -1.78,0l0.04 -1.32c-2.93,0.46 -5.17,1.85 -6.63,4.28l1.17 0.58c0.91,0.51 0.23,2.06 -0.8,1.6l-1.14 -0.55c-0.84,2.46 -0.73,4.96 0.53,7.52l1.06 -0.55c0.98,-0.31 1.59,0.93 0.8,1.64l-1.86 0.94z"/>
   <path class="fil0" d="M18.29 17.3c0.34,0.15 0.71,0.09 1.06,-0.29 2.1,-3.32 2.54,-6.87 0.87,-10.71 -0.61,-0.94 -2.01,-0.23 -1.59,0.74 1.19,3.23 0.96,5.94 -0.34,8.26l-1.06 -0.55c-0.8,-0.39 -1.7,0.82 -0.85,1.56l1.91 0.99z"/>
   <path class="fil0" d="M8.76 9.04c-2.18,2.17 0.89,6.26 3.69,3.65l5.68 -8.34c0.45,-0.94 -0.51,-1.78 -1.27,-1.27l-8.11 5.96zm1.35 1.27c-0.83,0.78 0.38,1.91 1.14,0.97l2.88 -3.97 -4.02 3z"/>
  </g>
 </g>
</svg>
