<?xml version="1.0" encoding="UTF-8"?>
<!DOCTYPE svg PUBLIC "-//W3C//DTD SVG 1.1//EN" "http://www.w3.org/Graphics/SVG/1.1/DTD/svg11.dtd">
<!-- Creator: CorelDRAW 2018 (64-Bit) -->
<svg xmlns="http://www.w3.org/2000/svg" xml:space="preserve" width="3.9224mm" height="3.74mm" version="1.1" style="shape-rendering:geometricPrecision; text-rendering:geometricPrecision; image-rendering:optimizeQuality; fill-rule:evenodd; clip-rule:evenodd"
viewBox="0 0 84.55 79.27"
 xmlns:xlink="http://www.w3.org/1999/xlink">
 <defs>
  <style type="text/css">
   <![CDATA[
    .str0 {stroke:white;stroke-width:5.79;stroke-miterlimit:22.9256}
    .str2 {stroke:white;stroke-width:2.2;stroke-miterlimit:22.9256}
    .str1 {stroke:white;stroke-width:1.47;stroke-miterlimit:22.9256}
    .fil0 {fill:none}
    .fil1 {fill:white}
   ]]>
  </style>
 </defs>
 <g id="Layer_x0020_1">
  <metadata id="CorelCorpID_0Corel-Layer"/>
  <g id="_2150362251232">
   <rect class="fil0 str0" x="2.89" y="2.89" width="63.45" height="73.48" rx="3.22" ry="3.21"/>
   <rect class="fil1" x="12.86" y="11.07" width="43.52" height="8.63" rx="5.61" ry="4.27"/>
   <rect class="fil1" x="12.86" y="26.38" width="45.87" height="8.63" rx="5.91" ry="4.27"/>
   <rect class="fil1" x="12.86" y="42.05" width="26.2" height="8.63" rx="3.37" ry="4.27"/>
   <path class="fil1 str1" d="M51.21 51.79l24.51 -41.31c3.93,-0.05 6.55,1.89 8.01,5.27l-24.51 41.31 -8.01 -5.27z"/>
   <polygon class="fil0 str1" points="51.19,51.78 59.24,57.08 48.94,65 "/>
   <path class="fil1 str1" d="M49.74 60.31c0.7,-1.27 3.51,0.58 2.81,1.81l-3.61 2.88 0.8 -4.69z"/>
   <path class="fil0 str2" d="M12.41 67.94c9.72,-16.59 8.27,-17.77 9.39,-2.71 1.76,-4.52 5.22,-7.78 5.29,0 1.76,-4.97 2.54,-2.51 2.94,1.36 3.52,-5.43 0.59,0.9 14.68,0.9"/>
  </g>
 </g>
</svg>
