<?xml version="1.0" encoding="UTF-8"?>
<!DOCTYPE svg PUBLIC "-//W3C//DTD SVG 1.1//EN" "http://www.w3.org/Graphics/SVG/1.1/DTD/svg11.dtd">
<!-- Creator: CorelDRAW 2018 (64-Bit) -->
<svg xmlns="http://www.w3.org/2000/svg" xml:space="preserve" width="3.8862mm" height="3.286mm" version="1.1" style="shape-rendering:geometricPrecision; text-rendering:geometricPrecision; image-rendering:optimizeQuality; fill-rule:evenodd; clip-rule:evenodd"
viewBox="0 0 47.95 28.21"
 xmlns:xlink="http://www.w3.org/1999/xlink">
 <defs>
  <style type="text/css">
   <![CDATA[
    .str1 {stroke:white;stroke-width:1.88;stroke-miterlimit:22.9256}
    .str0 {stroke:white;stroke-width:0.63;stroke-miterlimit:22.9256}
    .fil1 {fill:none}
    .fil0 {fill:white}
   ]]>
  </style>
 </defs>
 <g id="Layer_x0020_1">
  <metadata id="CorelCorpID_0Corel-Layer"/>
  <g id="_2187593148592">
   <path class="fil0" d="M15.4 0l19.24 0 0 17.4 -27.08 0c-1.1,0 -1.1,-1.5 0,-1.5l25.57 -0.15 0 -14.4 -17.73 0c-0.82,0 -0.82,-1.35 0,-1.35z"/>
   <rect class="fil0" x="6.87" y="3.6" width="12.23" height="1.65" rx="0.83" ry="0.83"/>
   <rect class="fil0" y="7.88" width="16.77" height="1.65" rx="1.14" ry="0.83"/>
   <rect class="fil0" x="2.2" y="11.78" width="12.37" height="1.65" rx="0.84" ry="0.83"/>
   <path class="fil0 str0" d="M7.7 23.03c-1.1,0 -1.1,1.35 0,1.35l2.47 0 0 -1.35 -2.47 0z"/>
   <line class="fil1 str1" x1="17.59" y1="23.71" x2="37.11" y2= "23.71" />
   <polyline class="fil1 str1" points="47.01,14.4 39.31,14.4 39.31,4.5 "/>
   <path class="fil1 str1" d="M34.64 4.35l4.67 0c4.95,0 7.7,5.25 7.7,10.05l-0.14 9.15 -2.48 0"/>
   <path class="fil0" d="M40.69 19.2c2.28,0 4.12,2.02 4.12,4.5 0,2.49 -1.85,4.5 -4.12,4.5 -2.28,0 -4.12,-2.01 -4.12,-4.5 0,-2.49 1.85,-4.5 4.12,-4.5zm0 1.8c1.37,0 2.48,1.21 2.48,2.7 0,1.49 -1.11,2.7 -2.48,2.7 -1.37,0 -2.47,-1.21 -2.47,-2.7 0,-1.49 1.11,-2.7 2.47,-2.7z"/>
   <path class="fil0" d="M14.02 19.2c2.28,0 4.12,2.02 4.12,4.5 0,2.49 -1.85,4.5 -4.12,4.5 -2.28,0 -4.12,-2.01 -4.12,-4.5 0,-2.49 1.85,-4.5 4.12,-4.5zm0 1.8c1.37,0 2.47,1.21 2.47,2.7 0,1.49 -1.11,2.7 -2.47,2.7 -1.37,0 -2.47,-1.21 -2.47,-2.7 0,-1.49 1.11,-2.7 2.47,-2.7z"/>
  </g>
 </g>
</svg>
