<?xml version="1.0" encoding="UTF-8"?>
<!DOCTYPE svg PUBLIC "-//W3C//DTD SVG 1.1//EN" "http://www.w3.org/Graphics/SVG/1.1/DTD/svg11.dtd">
<!-- Creator: CorelDRAW 2018 (64-Bit) -->
<svg xmlns="http://www.w3.org/2000/svg" xml:space="preserve" width="2.54mm" height="2.286mm" version="1.1" style="shape-rendering:geometricPrecision; text-rendering:geometricPrecision; image-rendering:optimizeQuality; fill-rule:evenodd; clip-rule:evenodd"
viewBox="0 0 295.35 265.81"
 xmlns:xlink="http://www.w3.org/1999/xlink">
 <defs>
  <style type="text/css">
   <![CDATA[
    .fil0 {fill:white}
   ]]>
  </style>
 </defs>
 <g id="Layer_x0020_1">
  <metadata id="CorelCorpID_0Corel-Layer"/>
  <g id="_2093677554432">
   <path class="fil0" d="M126.33 35.41c-40.64,-69.2 -131.88,22.17 -56.14,78.13 -36.65,10.14 -58.2,31.44 -59.66,60.24l-0.58 42.37 42.1 0 0 11.92 -52.05 0 0 -52.3c4.08,-29.15 18,-52.72 49.13,-66.53 -57.6,-76.8 43.57,-152.29 85.67,-80.12l-8.48 6.29z"/>
   <path class="fil0" d="M169.02 35.41c40.64,-69.2 131.88,22.17 56.14,78.13 36.65,10.14 58.2,31.44 59.66,60.24l0.58 42.37 -42.1 0 0 11.92 52.05 0 0 -52.3c-4.08,-29.15 -18,-52.72 -49.13,-66.53 57.6,-76.8 -43.57,-152.29 -85.67,-80.12l8.48 6.29z"/>
   <path class="fil0" d="M145.92 51.63c31.58,-3.31 74.86,62.9 5.27,102.63 36.64,10.13 68.12,28.47 69.58,57.27l0.58 42.37 -79.47 0 0 11.92 89.41 0 0 -52.3c-4.08,-29.15 -22.21,-49.99 -54.95,-63.23 47.37,-39.73 12.28,-113.22 -31,-109.24l0.58 10.59z"/>
   <path class="fil0" d="M145.03 51.63c-31.58,-3.31 -74.86,62.9 -5.27,102.63 -36.64,10.13 -68.13,28.47 -69.58,57.27l-0.59 42.37 79.48 0 0 11.92 -89.42 0 0 -52.3c4.09,-29.15 22.22,-49.99 54.97,-63.23 -47.37,-39.73 -12.28,-113.22 31,-109.24l-0.58 10.59z"/>
  </g>
 </g>
</svg>
